<?xml version="1.0" encoding="utf-8"?>
<!-- Generator: Adobe Illustrator 24.0.3, SVG Export Plug-In . SVG Version: 6.00 Build 0)  -->
<svg version="1.1" id="Layer_1" xmlns="http://www.w3.org/2000/svg" xmlns:xlink="http://www.w3.org/1999/xlink" x="0px" y="0px"
	 viewBox="0 0 792 792" style="enable-background:new 0 0 792 792;" xml:space="preserve">
<style type="text/css">
	.st0{fill:none;}
	.st1{fill:#262E42;}
	.st2{fill:#FFFFFF;}
	.st3{fill-rule:evenodd;clip-rule:evenodd;fill:#262E42;}
	.st4{fill-rule:evenodd;clip-rule:evenodd;fill:#7AB7B9;}
	.st5{fill:#7AB7B9;}
</style>
<g>
	<g>
		<path class="st0" d="M504.71,371.84c0.74-4.46,0.26-11.81,0.32-16.15c0.06-4.75,0.24-9.41,0.44-14.11
			c0.24-5.84,0.84-16.63,0.89-22.42c-0.94,8.49-6.51,19.46-6.57,28.05C499.74,353.71,502.71,365.36,504.71,371.84z"/>
		<path class="st0" d="M369.18,398.25c-0.34,7.22-0.01,14.29-1.22,21.56c-0.18,1.06-0.07,1.87,0.04,2.52
			c0.37-0.39,0.72-0.75,1.05-1.09c2.54-7.69,2.53-13.72,3-22.26c-0.7-1.75-1.22-3.33-1.62-4.84
			C370.1,395.84,369.7,397.25,369.18,398.25z"/>
		<path class="st1" d="M510.12,371.84c0.07-4.62-2.22-9.48-2.17-15.98c0.03-4.66,0.16-9.28,0.34-13.89
			c0.71-17.48,8.37-48.83-18.64-47.84c-13.25-4.29-31.86-1.62-45.42,1.82c-3.68,0.19-7.16,0.32-10.51,0.4
			c2.65,6.54,1.86,14.12-4.58,20.56c-2.53,2.53-6.36,4.4-9.85,5.27c-5.53,1.38-2.6,1.29-8.43,4.47c-6.32,3.44-14.46,3.83-20.77,0.13
			c-3.87-2.27-4.75-5.69-7.87-8.42c-1.98-1.74-5.15-2.7-7.37-4.14c-6.76-4.38-12.79-9.7-17.87-15.94c-0.81-1-1.52-2.06-2.14-3.15
			c-0.81-1.24-1.5-2.59-2.05-4.01c-0.72,0-1.44,0-2.17,0.01c-11.46-1.56-14.37-2.73-24.23-7.7c0.8-0.43,1.53-0.97,2.13-1.63
			c1.96-2.14,2.39-5.08,0.87-6.52c-2.03-1.94-5.3-0.06-7.3,1.02c-0.97,0.52-1.92,1.05-2.89,1.5c-0.08-1.08-6.28-4.96-16.43,3.24
			c-5.39,3.5-7.51,7.49-8.62,12.36c-5.27,4.96-6.08,10.41-11.53,13.53c-6.94,2.5-3.37,13.41,0.45,13.35
			c2.3,4.59,9.12,0.31,15.51,1.55c5.57,1.83,10.38,1.63,14.84,0.22c8.06,4.5,12.52,9.87,15.81,15.37c6.87,2.36,14.09,1,21.16,2.51
			c16.12,3.44,27.08,21.9,13.64,35.33c-1.8,1.8-4.26,3.25-6.79,4.26c0.3,1.45,0.58,2.93,0.81,4.51c0.97,6.53,0.98,10.87,3.21,17.45
			c-0.76,9.27-0.94,15.81-3.74,24.16c-1.57,1.73-3.88,4.09-5.03,6.86c-0.52,1.25,0.43,1.76,2.4,1.88c1.61,0.09,3.06,0.03,4.22-0.26
			c2.05-0.5,3.3-1.1,4.66-2.69c0.69-0.8,1.29-1.76,1.28-2.41c0.42,0.13,0.97,0.21,1.64,0.25c1.61,0.08,3.06,0.03,4.21-0.24
			c2.03-0.46,3.26-1.01,4.58-2.48c0.67-0.75,1.25-1.64,1.2-2.24c-0.15-0.73-0.01-1.98,1.5-2.52c0.18,0.24,0.32,0.5,0.41,0.81
			c0.05,0.15,0.24,0.19,0.4,0.06c0.9-0.79,1.19-2.22,0.53-3.22c0.28-0.69-0.49-1.73-0.21-3.62c0.98-6.7,0.44-13.21,0.56-19.87
			c1.93-3.58,2.19-13.73,2.13-21.23c1.9-0.03,3.74-0.23,5.54-0.43c11.13,1.08,46.35,4.43,65.55-0.1c1.96,4.61,6.06,8.35,11.27,10.33
			c0,2.67,0.14,6.69,1.26,6.69c0.59,0,0.9-1.04,1.07-2.43c0.16,1.55,0.48,2.77,1.1,2.77c1.02,0,1.23-3.17,1.26-5.79
			c1.1,0.18,2.24,0.28,3.39,0.3c0.04,2.58,0.26,5.76,1.25,5.76c0.68,0,1-1.41,1.15-3.12c0.14,1.85,0.45,3.46,1.16,3.46
			c1.11,0,1.26-3.75,1.26-6.47c0.36-0.06,0.72-0.14,1.07-0.22c0.35,1.58,0.62,3.2,0.8,4.85c1.03,9.04-0.65,21.05-3.38,30
			c-1.61,1.82-3.99,4.33-5.11,7.25c-0.51,1.32,0.52,1.86,2.62,1.99c1.72,0.09,3.26,0.03,4.48-0.27c2.16-0.53,3.47-1.16,4.86-2.84
			c0.71-0.86,1.33-1.88,1.27-2.57c-0.17-0.84-0.02-2.27,1.59-2.89c0.19,0.27,0.34,0.58,0.44,0.93c0.05,0.18,0.25,0.22,0.43,0.07
			c0.96-0.9,1.26-2.55,0.56-3.7c0.3-0.78-0.52-1.98-0.23-4.15c1.43-10.66,3.57-20.42,6.63-30.7c1.75,3.09,2.87,5.92,3.07,8.36
			c0.75,9.12-0.75,24.37-3.05,33.32c-1.52,1.82-3.78,4.33-4.76,7.25c-0.44,1.32,0.61,1.86,2.71,1.99c1.72,0.1,3.26,0.03,4.47-0.27
			c2.14-0.53,3.41-1.16,4.73-2.84c0.67-0.86,1.23-1.88,1.15-2.57c-0.21-0.84-0.13-2.27,1.45-2.89c0.21,0.27,0.37,0.58,0.49,0.93
			c0.06,0.18,0.27,0.22,0.43,0.07c0.92-0.91,1.14-2.55,0.38-3.7c0.26-0.78-0.62-1.98-0.43-4.15c0.58-6.72,1.3-13.21,2.64-19.83
			c0.09,0.2,0.19,0.4,0.32,0.59c0.06-2.25,0.47-4.79,1.04-6.82c0.42,0.68,0.68,1.41,1.3,2.03c-1.03-3.65,0.74-4.57,2.15-7.27
			C514.33,381.99,509.63,377.22,510.12,371.84z M369.04,421.23c-0.32,0.34-0.68,0.7-1.05,1.09c-0.11-0.64-0.22-1.46-0.04-2.52
			c1.21-7.27,0.88-14.34,1.22-21.56c0.52-0.99,0.93-2.41,1.24-4.11c0.4,1.51,0.91,3.08,1.62,4.84
			C371.57,407.51,371.58,413.54,369.04,421.23z M477.72,362.94c-1.86-0.01-3.53-0.61-5.08-1.47c-3.73,1.38-8.17,0.05-10.94-3.49
			c-0.42-0.53-0.76-1.08-1.07-1.64c-0.41-0.63-0.78-1.29-1.05-1.99c-0.74-1.97-1.49-3.94-2.23-5.92
			c-2.24-5.94,4.5-11.85,10.14-10.14c2.47,0.75,4.58,1.96,6.56,3.42c2.99,0.43,5.97,1.94,8.24,4.11c1.73,1.66,3.11,3.77,3.79,6.08
			C487.7,357.38,483.36,362.98,477.72,362.94z M505.46,341.58c-0.2,4.69-0.37,9.35-0.44,14.11c-0.06,4.34,0.42,11.69-0.32,16.15
			c-2-6.48-4.97-18.13-4.92-24.62c0.06-8.59,5.62-19.57,6.57-28.05C506.3,324.94,505.7,335.74,505.46,341.58z"/>
		<path class="st1" d="M510.12,371.84c0.07-4.62-2.22-9.48-2.17-15.98c0.03-4.66,0.16-9.28,0.34-13.89
			c0.71-17.48,8.37-48.83-18.64-47.84c-13.25-4.29-31.86-1.62-45.42,1.82c-3.68,0.19-7.16,0.32-10.51,0.4
			c2.65,6.54,1.86,14.12-4.58,20.56c-2.53,2.53-6.36,4.4-9.85,5.27c-5.53,1.38-2.6,1.29-8.43,4.47c-6.32,3.44-14.46,3.83-20.77,0.13
			c-3.87-2.27-4.75-5.69-7.87-8.42c-1.98-1.74-5.15-2.7-7.37-4.14c-6.76-4.38-12.79-9.7-17.87-15.94c-0.81-1-1.52-2.06-2.14-3.15
			c-0.81-1.24-1.5-2.59-2.05-4.01c-0.72,0-1.44,0-2.17,0.01c-11.46-1.56-14.37-2.73-24.23-7.7c0.8-0.43,1.53-0.97,2.13-1.63
			c1.96-2.14,2.39-5.08,0.87-6.52c-2.03-1.94-5.3-0.06-7.3,1.02c-0.97,0.52-1.92,1.05-2.89,1.5c-0.08-1.08-6.28-4.96-16.43,3.24
			c-5.39,3.5-7.51,7.49-8.62,12.36c-5.27,4.96-6.08,10.41-11.53,13.53c-6.94,2.5-3.37,13.41,0.45,13.35
			c2.3,4.59,9.12,0.31,15.51,1.55c5.57,1.83,10.38,1.63,14.84,0.22c8.06,4.5,12.52,9.87,15.81,15.37c6.87,2.36,14.09,1,21.16,2.51
			c16.12,3.44,27.08,21.9,13.64,35.33c-1.8,1.8-4.26,3.25-6.79,4.26c0.3,1.45,0.58,2.93,0.81,4.51c0.97,6.53,0.98,10.87,3.21,17.45
			c-0.76,9.27-0.94,15.81-3.74,24.16c-1.57,1.73-3.88,4.09-5.03,6.86c-0.52,1.25,0.43,1.76,2.4,1.88c1.61,0.09,3.06,0.03,4.22-0.26
			c2.05-0.5,3.3-1.1,4.66-2.69c0.69-0.8,1.29-1.76,1.28-2.41c0.42,0.13,0.97,0.21,1.64,0.25c1.61,0.08,3.06,0.03,4.21-0.24
			c2.03-0.46,3.26-1.01,4.58-2.48c0.67-0.75,1.25-1.64,1.2-2.24c-0.15-0.73-0.01-1.98,1.5-2.52c0.18,0.24,0.32,0.5,0.41,0.81
			c0.05,0.15,0.24,0.19,0.4,0.06c0.9-0.79,1.19-2.22,0.53-3.22c0.28-0.69-0.49-1.73-0.21-3.62c0.98-6.7,0.44-13.21,0.56-19.87
			c1.93-3.58,2.19-13.73,2.13-21.23c1.9-0.03,3.74-0.23,5.54-0.43c11.13,1.08,46.35,4.43,65.55-0.1c1.96,4.61,6.06,8.35,11.27,10.33
			c0,2.67,0.14,6.69,1.26,6.69c0.59,0,0.9-1.04,1.07-2.43c0.16,1.55,0.48,2.77,1.1,2.77c1.02,0,1.23-3.17,1.26-5.79
			c1.1,0.18,2.24,0.28,3.39,0.3c0.04,2.58,0.26,5.76,1.25,5.76c0.68,0,1-1.41,1.15-3.12c0.14,1.85,0.45,3.46,1.16,3.46
			c1.11,0,1.26-3.75,1.26-6.47c0.36-0.06,0.72-0.14,1.07-0.22c0.35,1.58,0.62,3.2,0.8,4.85c1.03,9.04-0.65,21.05-3.38,30
			c-1.61,1.82-3.99,4.33-5.11,7.25c-0.51,1.32,0.52,1.86,2.62,1.99c1.72,0.09,3.26,0.03,4.48-0.27c2.16-0.53,3.47-1.16,4.86-2.84
			c0.71-0.86,1.33-1.88,1.27-2.57c-0.17-0.84-0.02-2.27,1.59-2.89c0.19,0.27,0.34,0.58,0.44,0.93c0.05,0.18,0.25,0.22,0.43,0.07
			c0.96-0.9,1.26-2.55,0.56-3.7c0.3-0.78-0.52-1.98-0.23-4.15c1.43-10.66,3.57-20.42,6.63-30.7c1.75,3.09,2.87,5.92,3.07,8.36
			c0.75,9.12-0.75,24.37-3.05,33.32c-1.52,1.82-3.78,4.33-4.76,7.25c-0.44,1.32,0.61,1.86,2.71,1.99c1.72,0.1,3.26,0.03,4.47-0.27
			c2.14-0.53,3.41-1.16,4.73-2.84c0.67-0.86,1.23-1.88,1.15-2.57c-0.21-0.84-0.13-2.27,1.45-2.89c0.21,0.27,0.37,0.58,0.49,0.93
			c0.06,0.18,0.27,0.22,0.43,0.07c0.92-0.91,1.14-2.55,0.38-3.7c0.26-0.78-0.62-1.98-0.43-4.15c0.58-6.72,1.3-13.21,2.64-19.83
			c0.09,0.2,0.19,0.4,0.32,0.59c0.06-2.25,0.47-4.79,1.04-6.82c0.42,0.68,0.68,1.41,1.3,2.03c-1.03-3.65,0.74-4.57,2.15-7.27
			C514.33,381.99,509.63,377.22,510.12,371.84z M369.04,421.23c-0.32,0.34-0.68,0.7-1.05,1.09c-0.11-0.64-0.22-1.46-0.04-2.52
			c1.21-7.27,0.88-14.34,1.22-21.56c0.52-0.99,0.93-2.41,1.24-4.11c0.4,1.51,0.91,3.08,1.62,4.84
			C371.57,407.51,371.58,413.54,369.04,421.23z M477.72,362.94c-1.86-0.01-3.53-0.61-5.08-1.47c-3.73,1.38-8.17,0.05-10.94-3.49
			c-0.42-0.53-0.76-1.08-1.07-1.64c-0.41-0.63-0.78-1.29-1.05-1.99c-0.74-1.97-1.49-3.94-2.23-5.92
			c-2.24-5.94,4.5-11.85,10.14-10.14c2.47,0.75,4.58,1.96,6.56,3.42c2.99,0.43,5.97,1.94,8.24,4.11c1.73,1.66,3.11,3.77,3.79,6.08
			C487.7,357.38,483.36,362.98,477.72,362.94z M505.46,341.58c-0.2,4.69-0.37,9.35-0.44,14.11c-0.06,4.34,0.42,11.69-0.32,16.15
			c-2-6.48-4.97-18.13-4.92-24.62c0.06-8.59,5.62-19.57,6.57-28.05C506.3,324.94,505.7,335.74,505.46,341.58z"/>
		<path class="st2" d="M356.97,298.51c5.08,6.24,11.11,11.56,17.87,15.94c2.22,1.44,5.39,2.4,7.37,4.14
			c3.12,2.73,3.99,6.15,7.87,8.42c6.32,3.7,14.45,3.31,20.77-0.13c5.83-3.18,2.9-3.09,8.43-4.47c3.49-0.87,7.32-2.74,9.85-5.27
			c6.44-6.44,7.24-14.02,4.58-20.56c-39.61,0.96-57.74-5.12-80.94-5.23c0.55,1.43,1.24,2.77,2.05,4.01
			C355.44,296.45,356.15,297.51,356.97,298.51z"/>
		<g>
			<path class="st1" d="M422.98,299.25c-18.3,0-31.87-2.58-44.07-3.65c-9.66-0.85-18-1.58-27.16-1.62l-0.14-2.87
				c9.27,0.04,18.23,0.93,27.54,1.75c14.41,1.26,30.97,4.09,54.76,3.51l0.95,2.69C431.08,299.14,426.39,299.25,422.98,299.25z"/>
		</g>
		<path class="st2" d="M350.37,339.93c-7.07-1.51-14.28-0.14-21.16-2.51c4.95,8.28,7.2,16.87,14.81,23.33
			c2.86,7.34,7.06,11.29,11.99,13.31c0.41,1.79,0.83,3.59,1.21,5.46c2.53-1.01,4.99-2.45,6.79-4.26
			C377.45,361.83,366.49,343.38,350.37,339.93z"/>
		<g>
			<path class="st1" d="M357.41,380.25c-0.33-1.62-1.12-4.46-1.48-6.02c-5.38-2.41-9.3-6.82-11.96-13.47
				c-5.31-4.61-8-10.09-10.85-15.89c-1.22-2.49-2.49-5.06-3.98-7.56l2.36-1.41c1.55,2.6,2.84,5.22,4.09,7.76
				c2.77,5.63,5.38,10.94,10.43,15.23l0.26,0.22l0.13,0.32c2.48,6.36,6.16,10.46,11.23,12.53l0.66,0.27l0.28,1.22
				c0.37,1.63,0.75,3.27,1.1,4.96L357.41,380.25z"/>
		</g>
		<path class="st2" d="M482.29,345.82c-2.27-2.17-5.25-3.69-8.24-4.11c-1.99-1.46-4.09-2.67-6.56-3.42
			c-5.65-1.71-12.38,4.2-10.14,10.14c0.74,1.97,1.49,3.94,2.23,5.92c0.27,0.7,0.63,1.36,1.05,1.99c0.31,0.56,0.66,1.11,1.07,1.64
			c2.77,3.54,7.21,4.87,10.94,3.49c1.55,0.87,3.22,1.46,5.08,1.47c5.65,0.04,9.98-5.57,8.37-11.05
			C485.4,349.59,484.02,347.47,482.29,345.82z"/>
	</g>
	<path class="st3" d="M650.7,667.17c8.7,4.92,20.59,1.23,26.63-8.57l9.8-16.04c13.18-0.38,26.67-6.96,34.86-19.36
		c8.16-12.35,8.57-27.74,1.61-40.42l9.8-16.04c6.03-9.75,1.94-23.29-9.4-29.68c-95.32-53.91-204.44-83.63-313.77-85.81
		C291.19,448.36,170.89,478.27,67,537.06c-11.33,6.34-15.43,19.93-9.4,29.68l9.8,16.04c-6.96,12.69-6.56,28.07,1.61,40.42
		c8.19,12.4,21.68,18.98,34.87,19.36l9.79,16.04c6.06,9.75,17.94,13.49,26.63,8.57c80.81-45.63,173.67-68.77,266.7-66.54
		C492.27,602.33,576.56,625.33,650.7,667.17z M96.91,611.93c-2.43,1.47-5.59,0.66-7.06-1.8c-1.47-2.41-0.64-5.63,1.83-7.1
		c2.47-1.47,5.67-0.57,7.09,1.89C100.18,607.39,99.33,610.52,96.91,611.93z M692.24,604.93c1.41-2.46,4.61-3.36,7.1-1.89
		c2.47,1.47,3.29,4.68,1.81,7.1c-1.47,2.46-4.63,3.27-7.05,1.85C691.68,610.52,690.82,607.39,692.24,604.93z"/>
	<path class="st3" d="M599.35,696.75c1.88,0.9,2.65,3.13,1.74,4.97c-0.9,1.85-3.14,2.65-4.97,1.75c-1.83-0.9-2.63-3.12-1.75-4.97
		C595.24,696.66,597.48,695.85,599.35,696.75z M196.64,698.5c0.88,1.85,0.08,4.07-1.75,4.97c-1.85,0.9-4.07,0.09-4.97-1.75
		c-0.92-1.84-0.14-4.07,1.73-4.97C193.52,695.85,195.77,696.66,196.64,698.5z"/>
	<path class="st4" d="M177.86,668.07l1.29,2.7c67.18-32.42,141.86-49.27,216.35-49.18c74.47-0.09,149.16,16.76,216.35,49.18
		l1.29-2.7c-67.59-32.61-142.72-49.56-217.64-49.46C320.58,618.51,245.45,635.46,177.86,668.07z"/>
	<path class="st4" d="M299.28,700.49c62.97-14.34,129.47-14.34,192.45,0l0.66-2.89c-63.42-14.48-130.35-14.48-193.77,0
		L299.28,700.49z"/>
	<path class="st5" d="M652.91,488.83l-4.03-1.51c11.43-30.43,17.24-62.48,17.24-95.23c0-149.19-121.4-270.59-270.63-270.59
		S124.88,242.9,124.88,392.08c0,32.75,5.8,64.8,17.24,95.23l-4.03,1.51c-11.63-30.96-17.51-63.47-17.51-96.74
		c0-151.6,123.33-274.9,274.93-274.9s274.93,123.3,274.93,274.9C670.44,425.36,664.54,457.87,652.91,488.83z M563.91,459.86l-4-1.61
		c8.47-21.02,12.78-43.31,12.78-66.17c0-97.69-79.49-177.16-177.18-177.16c-97.69,0-177.18,79.47-177.18,177.16
		c0,22.86,4.31,45.15,12.78,66.17l-4,1.61c-8.69-21.54-13.09-44.35-13.09-67.78c0-100.06,81.41-181.47,181.49-181.47
		S577,292.03,577,392.08C577,415.51,572.59,438.33,563.91,459.86z"/>
	<g>
		<g>
			<path class="st3" d="M396.67,50.31c-0.15-0.47-0.62-0.8-1.17-0.8c-0.56,0-1.02,0.33-1.17,0.8c-1.63,4.83-3.2,9.61-4.69,14.44
				c-0.16,0.47-0.6,0.8-1.14,0.8c-5.11,0.09-10.22,0.28-15.32,0.66c-0.53,0.05-0.95,0.38-1.09,0.85c-0.12,0.52,0.07,1.04,0.52,1.28
				c4.33,2.65,8.54,5.4,12.64,8.24c0.41,0.28,0.59,0.76,0.47,1.28c-1.4,4.83-2.71,9.65-3.95,14.53c-0.14,0.47,0.05,0.99,0.43,1.28
				c0.4,0.28,0.91,0.24,1.3-0.05c3.67-3.17,7.44-6.15,11.34-9.18c0.4-0.28,0.91-0.28,1.32,0c3.91,3.03,7.69,6.01,11.36,9.18
				c0.37,0.28,0.87,0.33,1.26,0.05s0.58-0.8,0.44-1.28c-1.23-4.88-2.56-9.7-3.93-14.53c-0.16-0.52,0.04-0.99,0.45-1.28
				c4.1-2.84,8.31-5.59,12.64-8.24c0.45-0.24,0.64-0.76,0.52-1.28c-0.14-0.47-0.55-0.8-1.09-0.85c-5.1-0.38-10.21-0.57-15.33-0.66
				c-0.52,0-0.96-0.33-1.14-0.8C399.86,59.92,398.3,55.14,396.67,50.31z M532.93,116.76c2.19,1.04,2.99,3.79,1.82,6.06
				c-1.17,2.22-3.81,3.12-5.92,2.13c-2.08-1.04-2.91-3.74-1.82-6.01C528.11,116.62,530.76,115.67,532.93,116.76z M101.46,482.96
				c-0.69-2.32,0.71-4.78,3.14-5.49c2.44-0.71,4.93,0.52,5.61,2.79c0.71,2.22-0.65,4.68-3.05,5.44
				C104.75,486.51,102.2,485.28,101.46,482.96z M106.81,498.72c-0.86-2.27,0.43-4.83,2.82-5.68c2.4-0.8,4.93,0.33,5.77,2.51
				c0.83,2.22-0.41,4.73-2.77,5.63C110.27,502.13,107.67,500.99,106.81,498.72z M273.18,109.71c2.21-0.99,4.83,0.14,5.8,2.51
				c0.97,2.32-0.02,4.92-2.15,5.87c-2.16,0.95-4.76-0.14-5.81-2.46C269.96,113.35,270.93,110.7,273.18,109.71z M258.07,116.76
				c2.2-1.09,4.83-0.14,5.93,2.18c1.09,2.27,0.29,4.92-1.83,6.01c-2.1,1-4.75,0.1-5.91-2.13
				C255.07,120.55,255.89,117.8,258.07,116.76z M304.6,95.11c2.25-0.91,4.82,0.32,5.7,2.72c0.88,2.35-0.2,4.92-2.37,5.78
				c-2.2,0.87-4.75-0.31-5.72-2.67C301.26,98.63,302.32,96.02,304.6,95.11z M289.25,101.61c2.24-1.01,4.83,0.03,5.84,2.39
				c1.01,2.31,0.11,4.93-2.05,5.94c-2.13,0.92-4.75-0.08-5.82-2.34C286.12,105.28,287.04,102.57,289.25,101.61z M243.38,124.57
				c2.14-1.18,4.83-0.33,6.03,1.89c1.23,2.22,0.57,4.92-1.5,6.06c-2.05,1.19-4.71,0.43-6-1.8
				C240.63,128.59,241.26,125.75,243.38,124.57z M229.14,133.23c2.05-1.32,4.82-0.61,6.15,1.51c1.33,2.18,0.78,4.92-1.19,6.15
				c-1.96,1.33-4.68,0.66-6.1-1.47C226.6,137.35,227.13,134.56,229.14,133.23z M215.4,142.6c1.95-1.42,4.76-0.85,6.21,1.23
				c1.44,2.08,1.03,4.83-0.85,6.2c-1.92,1.42-4.66,0.85-6.18-1.14C213.07,146.86,213.42,144.07,215.4,142.6z M202.18,152.73
				c1.88-1.51,4.68-1.13,6.25,0.85c1.55,1.99,1.33,4.83-0.5,6.3c-1.86,1.47-4.64,1.13-6.25-0.81
				C200.05,157.09,200.25,154.25,202.18,152.73z M189.48,163.57c1.83-1.61,4.64-1.37,6.31,0.52c1.66,1.89,1.6,4.68-0.18,6.29
				c-1.75,1.51-4.51,1.37-6.26-0.47C187.65,168.07,187.67,165.18,189.48,163.57z M177.43,175.07c1.7-1.75,4.57-1.66,6.32,0.19
				c1.78,1.8,1.81,4.59,0.16,6.25c-1.63,1.66-4.45,1.61-6.27-0.14C175.82,179.62,175.72,176.78,177.43,175.07z M166,187.19
				c1.61-1.85,4.46-1.89,6.32-0.19c1.87,1.75,2.06,4.5,0.51,6.3c-1.57,1.75-4.36,1.84-6.28,0.19
				C164.63,191.83,164.38,189.04,166,187.19z M155.25,199.87c1.51-1.89,4.33-2.13,6.27-0.47c1.97,1.61,2.33,4.4,0.87,6.2
				c-1.5,1.84-4.27,2.13-6.28,0.57C154.11,204.61,153.69,201.77,155.25,199.87z M145.16,213.17c1.46-1.99,4.25-2.37,6.28-0.85
				c2.04,1.51,2.56,4.26,1.16,6.2c-1.37,1.89-4.12,2.32-6.2,0.85C144.32,217.95,143.74,215.16,145.16,213.17z M135.84,226.99
				c1.31-2.08,4.12-2.6,6.22-1.18c2.12,1.42,2.76,4.07,1.5,6.06c-1.25,1.99-4,2.55-6.15,1.23
				C135.24,231.77,134.54,229.03,135.84,226.99z M127.28,241.24c1.16-2.13,3.95-2.79,6.13-1.51c2.19,1.33,2.97,3.97,1.84,6.01
				c-1.13,2.04-3.87,2.75-6.1,1.56C126.93,246.07,126.1,243.37,127.28,241.24z M119.51,255.96c1.08-2.18,3.78-2.98,6.02-1.85
				c2.25,1.19,3.22,3.83,2.18,5.92c-1.06,2.13-3.71,2.93-6,1.84C119.41,260.79,118.39,258.19,119.51,255.96z M112.54,271.11
				c0.97-2.22,3.62-3.22,5.94-2.18c2.31,1.04,3.41,3.64,2.46,5.77c-0.95,2.18-3.51,3.17-5.88,2.22
				C112.72,275.98,111.54,273.33,112.54,271.11z M106.38,286.58c0.85-2.27,3.48-3.41,5.84-2.51c2.37,0.9,3.58,3.45,2.76,5.63
				c-0.78,2.22-3.34,3.36-5.73,2.51C106.85,291.41,105.58,288.86,106.38,286.58z M101.11,302.39c0.67-2.37,3.28-3.6,5.68-2.79
				c2.43,0.76,3.72,3.17,3.08,5.44c-0.66,2.22-3.17,3.5-5.61,2.79C101.82,307.17,100.42,304.71,101.11,302.39z M96.7,318.44
				c0.57-2.37,3.03-3.74,5.49-3.12c2.44,0.66,3.94,3.03,3.41,5.3c-0.57,2.32-3,3.69-5.48,3.12C97.65,323.17,96.12,320.8,96.7,318.44
				z M93.18,334.72c0.45-2.41,2.83-3.93,5.3-3.41c2.48,0.47,4.13,2.79,3.69,5.06c-0.47,2.32-2.79,3.83-5.28,3.41
				C94.38,339.36,92.71,337.09,93.18,334.72z M90.53,351.14c0.33-2.41,2.63-4.07,5.14-3.69c2.51,0.38,4.26,2.56,3.93,4.92
				c-0.34,2.32-2.53,3.98-5.06,3.69C92.03,355.78,90.16,353.56,90.53,351.14z M88.78,367.71c0.21-2.41,2.41-4.17,4.95-3.93
				c2.51,0.24,4.38,2.32,4.16,4.64c-0.18,2.37-2.31,4.12-4.85,3.98C90.53,372.25,88.59,370.12,88.78,367.71z M87.9,384.37
				c0.09-2.46,2.21-4.35,4.73-4.21c2.54,0.09,4.5,2.04,4.43,4.4c-0.02,2.37-2.1,4.26-4.64,4.26
				C89.89,388.77,87.88,386.78,87.9,384.37z M87.95,401.03c-0.09-2.41,1.97-4.45,4.5-4.45c2.54-0.05,4.56,1.85,4.66,4.17
				c0.07,2.37-1.89,4.35-4.43,4.45C90.15,405.34,88.04,403.44,87.95,401.03z M88.87,417.64c-0.19-2.41,1.68-4.5,4.24-4.69
				c2.51-0.14,4.7,1.61,4.9,3.93c0.18,2.37-1.68,4.5-4.19,4.73C91.29,421.86,89.06,420.1,88.87,417.64z M90.68,434.21
				c-0.31-2.41,1.47-4.64,3.99-4.92c2.51-0.28,4.78,1.37,5.09,3.69c0.31,2.32-1.4,4.54-3.9,4.92
				C93.36,438.28,91,436.62,90.68,434.21z M93.39,450.68c-0.48-2.42,1.23-4.69,3.71-5.16c2.51-0.43,4.81,1.09,5.28,3.41
				c0.45,2.27-1.16,4.59-3.64,5.11C96.26,454.56,93.86,453.05,93.39,450.68z M97,466.91c-0.58-2.37,0.91-4.73,3.4-5.3
				c2.46-0.57,4.92,0.8,5.48,3.08c0.56,2.27-0.92,4.64-3.37,5.3C100.05,470.65,97.57,469.28,97,466.91z M517.85,109.71
				c2.22,1,3.2,3.64,2.14,5.92c-1.05,2.32-3.64,3.41-5.79,2.46c-2.15-0.95-3.15-3.55-2.18-5.87
				C513,109.85,515.6,108.71,517.85,109.71z M501.69,102.16c2.28,0.83,3.33,3.49,2.38,5.86c-0.96,2.32-3.5,3.47-5.69,2.67
				c-2.17-0.84-3.25-3.45-2.37-5.81C496.89,102.47,499.44,101.28,501.69,102.16z M486.02,96.55c2.31,0.78,3.52,3.33,2.69,5.69
				c-0.83,2.41-3.31,3.73-5.53,2.99c-2.23-0.74-3.47-3.24-2.72-5.64C481.21,97.15,483.69,95.77,486.02,96.55z M684.17,498.72
				c-0.84,2.27-3.43,3.41-5.8,2.46c-2.37-0.9-3.6-3.41-2.78-5.63c0.84-2.18,3.38-3.31,5.77-2.51
				C683.76,493.89,685.05,496.45,684.17,498.72z M689.55,482.96c-0.73,2.32-3.29,3.55-5.7,2.79c-2.41-0.8-3.76-3.26-3.04-5.49
				c0.66-2.27,3.17-3.5,5.6-2.79C688.84,478.18,690.23,480.64,689.55,482.96z M694.01,466.91c-0.58,2.37-3.07,3.74-5.52,3.08
				c-2.44-0.66-3.92-2.98-3.37-5.3c0.57-2.27,3.03-3.64,5.48-3.08C693.09,462.18,694.59,464.55,694.01,466.91z M697.62,450.68
				c-0.48,2.37-2.86,3.88-5.35,3.36c-2.49-0.52-4.11-2.84-3.64-5.11c0.47-2.32,2.77-3.83,5.28-3.41
				C696.39,445.99,698.09,448.26,697.62,450.68z M700.31,434.21c-0.31,2.41-2.66,4.07-5.16,3.69c-2.51-0.38-4.21-2.6-3.9-4.92
				c0.31-2.32,2.58-3.98,5.09-3.64C698.85,429.62,700.63,431.8,700.31,434.21z M702.12,417.69c-0.19,2.41-2.4,4.17-4.93,3.93
				c-2.51-0.24-4.37-2.37-4.19-4.68c0.19-2.37,2.39-4.12,4.9-3.98C700.46,413.15,702.33,415.23,702.12,417.69z M703.06,401.03
				c-0.09,2.46-2.2,4.31-4.73,4.17c-2.53-0.09-4.51-2.08-4.42-4.45c0.11-2.32,2.11-4.21,4.66-4.17
				C701.08,396.58,703.15,398.62,703.06,401.03z M703.1,384.37c0.03,2.46-1.98,4.4-4.52,4.45c-2.53,0-4.6-1.85-4.63-4.26
				c-0.08-2.32,1.88-4.31,4.42-4.4C700.89,380.01,703.01,381.91,703.1,384.37z M702.23,367.71c0.19,2.41-1.75,4.54-4.26,4.69
				c-2.54,0.14-4.68-1.61-4.85-3.98c-0.21-2.32,1.65-4.4,4.17-4.64C699.82,363.54,702.02,365.29,702.23,367.71z M700.48,351.14
				c0.35,2.41-1.5,4.64-4,4.92c-2.53,0.28-4.72-1.37-5.08-3.69c-0.32-2.37,1.43-4.54,3.94-4.92
				C697.85,347.07,700.14,348.73,700.48,351.14z M697.83,334.72c0.47,2.37-1.21,4.69-3.72,5.11c-2.49,0.43-4.82-1.13-5.28-3.45
				c-0.45-2.27,1.21-4.59,3.68-5.06C695,330.79,697.38,332.31,697.83,334.72z M694.3,318.44c0.57,2.37-0.95,4.73-3.42,5.3
				c-2.47,0.57-4.91-0.8-5.48-3.12c-0.55-2.27,0.97-4.64,3.4-5.3C691.28,314.7,693.73,316.07,694.3,318.44z M689.9,302.39
				c0.69,2.32-0.71,4.78-3.15,5.44c-2.44,0.71-4.95-0.57-5.61-2.79c-0.65-2.27,0.65-4.69,3.08-5.44
				C686.61,298.8,689.23,300.03,689.9,302.39z M684.63,286.58c0.8,2.27-0.46,4.83-2.86,5.63c-2.39,0.85-4.96-0.28-5.73-2.51
				c-0.83-2.18,0.4-4.69,2.77-5.59C681.17,283.22,683.77,284.31,684.63,286.58z M678.49,271.11c0.97,2.22-0.21,4.88-2.55,5.82
				c-2.36,0.95-4.92-0.05-5.87-2.22c-0.95-2.13,0.15-4.73,2.46-5.77C674.85,267.89,677.5,268.88,678.49,271.11z M671.5,255.96
				c1.1,2.22,0.1,4.88-2.19,5.96c-2.29,1.09-4.95,0.24-6.01-1.89c-1.04-2.08-0.08-4.73,2.18-5.92
				C667.73,252.98,670.42,253.78,671.5,255.96z M663.73,241.24c1.19,2.18,0.35,4.83-1.87,6.06c-2.24,1.18-4.95,0.52-6.1-1.56
				c-1.12-2.04-0.36-4.68,1.84-6.01C659.78,238.45,662.56,239.11,663.73,241.24z M655.16,226.99c1.29,2.04,0.59,4.78-1.56,6.1
				c-2.15,1.33-4.91,0.76-6.15-1.23c-1.26-1.94-0.62-4.64,1.5-6.06C651.05,224.39,653.87,224.91,655.16,226.99z M645.84,213.17
				c1.42,1.99,0.85,4.78-1.23,6.2c-2.09,1.47-4.83,1.04-6.2-0.85c-1.4-1.94-0.87-4.69,1.16-6.15
				C641.6,210.86,644.39,211.18,645.84,213.17z M635.78,199.92c1.54,1.85,1.12,4.69-0.89,6.25c-2,1.56-4.77,1.28-6.26-0.52
				c-1.49-1.84-1.11-4.64,0.84-6.25C631.42,197.74,634.24,197.98,635.78,199.92z M625.01,187.19c1.62,1.85,1.37,4.64-0.55,6.3
				c-1.92,1.66-4.71,1.56-6.29-0.19c-1.54-1.8-1.35-4.54,0.52-6.3C620.55,185.3,623.4,185.34,625.01,187.19z M613.58,175.07
				c1.72,1.75,1.61,4.54-0.21,6.3c-1.82,1.75-4.61,1.84-6.27,0.14c-1.66-1.66-1.61-4.45,0.17-6.25
				C609.01,173.41,611.88,173.32,613.58,175.07z M601.52,163.57c1.81,1.61,1.83,4.5,0.12,6.34c-1.74,1.85-4.51,1.99-6.26,0.47
				c-1.75-1.56-1.82-4.4-0.16-6.29C596.89,162.2,599.71,161.96,601.52,163.57z M588.85,152.78c1.9,1.47,2.11,4.31,0.47,6.29
				c-1.61,1.94-4.39,2.27-6.22,0.81c-1.85-1.47-2.06-4.26-0.5-6.3C584.17,151.6,586.93,151.22,588.85,152.78z M575.62,142.65
				c1.97,1.42,2.34,4.21,0.83,6.25c-1.53,2.04-4.3,2.56-6.18,1.14c-1.92-1.37-2.32-4.12-0.87-6.2
				C570.85,141.75,573.66,141.18,575.62,142.65z M561.87,133.23c2.04,1.33,2.53,4.12,1.14,6.2c-1.42,2.13-4.12,2.79-6.1,1.47
				c-1.97-1.23-2.52-3.97-1.18-6.15C557.06,132.62,559.83,131.91,561.87,133.23z M547.62,124.57c2.11,1.18,2.76,4.02,1.47,6.15
				c-1.3,2.22-3.95,2.98-6,1.8c-2.05-1.13-2.73-3.83-1.51-6.06C542.8,124.24,545.51,123.39,547.62,124.57z M453.76,63.75
				c-0.05-0.43-0.37-0.71-0.78-0.76c-0.45-0.09-0.84,0.09-1.03,0.47l-5.66,10.79c-0.2,0.38-0.59,0.57-0.98,0.52
				c-4.02-0.62-8.04-1.23-12.08-1.7c-0.42-0.05-0.8,0.19-0.97,0.57c-0.16,0.38-0.08,0.8,0.24,1.09c2.98,2.7,5.87,5.54,8.69,8.33
				c0.3,0.28,0.34,0.71,0.18,1.09l-5.21,10.93c-0.15,0.38-0.09,0.8,0.19,1.09c0.26,0.29,0.69,0.33,1.02,0.14
				c3.35-1.99,6.77-3.83,10.25-5.68c0.37-0.19,0.78-0.09,1.06,0.19c2.65,2.89,5.24,5.82,7.74,8.76c0.24,0.33,0.66,0.42,1.01,0.24
				c0.37-0.14,0.55-0.57,0.53-0.95l-1.21-12.07c-0.03-0.38,0.19-0.8,0.55-0.95c3.6-1.7,7.27-3.36,10.99-4.97
				c0.39-0.14,0.63-0.47,0.58-0.9c-0.02-0.43-0.33-0.76-0.73-0.85c-3.98-0.85-7.93-1.75-11.94-2.46c-0.39-0.09-0.7-0.43-0.76-0.8
				L453.76,63.75z M337.25,63.75c0.05-0.43,0.37-0.71,0.82-0.76c0.4-0.09,0.8,0.09,0.99,0.47l5.68,10.79
				c0.16,0.38,0.55,0.57,0.96,0.52c4.01-0.62,8.04-1.23,12.08-1.7c0.42-0.05,0.8,0.19,0.96,0.57c0.19,0.38,0.09,0.8-0.23,1.09
				c-2.98,2.7-5.87,5.54-8.7,8.33c-0.27,0.28-0.34,0.71-0.18,1.09l5.21,10.93c0.15,0.38,0.09,0.8-0.19,1.09
				c-0.26,0.29-0.66,0.33-1.02,0.14c-3.36-1.99-6.77-3.83-10.25-5.68c-0.37-0.19-0.78-0.09-1.04,0.19
				c-2.67,2.89-5.25,5.82-7.77,8.76c-0.24,0.33-0.63,0.42-1.01,0.24c-0.33-0.19-0.54-0.57-0.52-0.95l1.21-12.07
				c0.03-0.38-0.17-0.8-0.55-0.95c-3.6-1.7-7.27-3.36-10.99-4.97c-0.39-0.14-0.6-0.52-0.58-0.9c0.06-0.43,0.33-0.76,0.73-0.85
				c3.98-0.85,7.93-1.75,11.93-2.46c0.4-0.09,0.7-0.43,0.77-0.8L337.25,63.75z"/>
		</g>
	</g>
	<g>
		<g>
			<path class="st5" d="M479.27,736.08h32.14v4.17h-32.14V736.08L479.27,736.08z M279.6,736.08h32.14v4.17H279.6V736.08
				L279.6,736.08z M279.6,726.34h32.14v4.12H279.6V726.34L279.6,726.34z M479.27,726.34h32.14v4.12h-32.14V726.34z"/>
		</g>
	</g>
	<g>
		<path class="st2" d="M168.53,534.18l20.95,71.31l-8.25,3.87l-32.11-39.44l9.77,49.9l-8.25,3.86l-41.41-61.72
			c-1.19-1.67-2.69-2.56-4.15-2.85l13.6-6.37c-0.22,1.91,0.14,3.55,0.88,4.65l22.3,33.23l-7.83-40.01
			c-0.18-0.93-0.95-2.24-2.62-3.84l11.27-5.28c0.16,2.3,0.68,3.73,1.28,4.47l25.74,31.61l-11.28-38.39
			c-0.37-1.27-1.41-2.6-3.01-3.65l13.6-6.37C168.28,530.48,168.01,532.2,168.53,534.18z"/>
		<path class="st2" d="M228.35,591.57c0.74-1.48,0.91-3.25,0.35-4.95l-7.29-22.03l-15.83,5.24l7.29,22.02
			c0.56,1.7,1.75,3.01,3.23,3.76l-14.13,4.68c0.74-1.48,0.91-3.25,0.35-4.95l-20.23-61.14l5.6-11.13l20.2-6.68l11.13,5.6
			l20.23,61.14c0.56,1.7,1.75,3.01,3.23,3.76L228.35,591.57z M209.91,529.85l-2.91-1.46l-11.46,3.79l-1.46,2.91l8,24.19l15.83-5.24
			L209.91,529.85z"/>
		<path class="st2" d="M245.06,586.1c0.86-1.42,1.18-3.16,0.77-4.89l-15.99-66.75c-0.42-1.73-1.49-3.14-2.9-4.01l14.47-3.47
			c-0.86,1.42-1.18,3.16-0.76,4.9l14.47,60.39l21.62-5.18l1.52,6.35c0.42,1.74,1.49,3.14,2.9,4.01L245.06,586.1z"/>
		<path class="st2" d="M328.03,569.86l-15.31,2.33c0.88-0.94,0.41-3.13,0.17-3.59l-14.31-27.98l-7.03,1.07l4.33,28.43
			c0.27,1.77,1.22,3.26,2.55,4.25l-14.71,2.24c0.97-1.34,1.44-3.05,1.17-4.82l-10.32-67.84c-0.27-1.77-1.23-3.26-2.55-4.25
			l14.71-2.24c-0.97,1.34-1.44,3.05-1.17,4.82l4.33,28.43l7.03-1.07l5.34-30.97c0.09-0.51-0.11-2.74-1.23-3.38l15.31-2.33
			c-1.19,0.93-2.24,2.49-2.68,5.05l-6.14,35.64l16.47,32.2C325.14,568.15,326.61,569.33,328.03,569.86z"/>
		<path class="st2" d="M365.59,562.57c0.12,1.78,0.95,3.35,2.19,4.44l-37.02,2.54c1.08-1.26,1.69-2.92,1.57-4.7l-4.69-68.45
			c-0.12-1.78-0.95-3.35-2.19-4.44l37.02-2.54c-1.08,1.26-1.69,2.92-1.57,4.7l0.45,6.51l-22.17,1.52l1.52,22.17l18.51-1.27
			c-1.08,1.26-1.69,2.92-1.57,4.7l0.45,6.51l-16.63,1.14l1.52,22.17l22.17-1.52L365.59,562.57z"/>
		<path class="st2" d="M416.88,567.21l-15.93-0.22c1.16-0.89,0.73-2.95,0.49-3.52l-10.06-24.4l-7.52-0.1l-0.32,23.2
			c-0.02,1.79,0.67,3.42,1.82,4.61l-14.88-0.2c1.18-1.16,1.92-2.77,1.95-4.56l0.94-68.62c0.02-1.79-0.67-3.42-1.82-4.61l32.04,0.44
			l8.69,8.93l-0.44,32.38l-8.53,8.3l9.79,23.73C414.05,564.91,415.57,566.46,416.88,567.21z M401.1,502.61l-2.27-2.33l-14.44-0.2
			l-0.38,27.78l14.44,0.2l2.33-2.27L401.1,502.61z"/>
		<path class="st2" d="M487.86,496.63c-1.31,1.02-2.23,2.53-2.46,4.3l-0.85,6.48l-22.04-2.88l-2.89,22.04l18.41,2.41
			c-1.31,1.02-2.23,2.53-2.46,4.3l-0.85,6.47l-16.53-2.16l-3.73,28.52c-0.23,1.77,0.27,3.47,1.27,4.79l-14.76-1.93
			c1.31-1.02,2.23-2.53,2.46-4.3l8.9-68.07c0.23-1.77-0.27-3.47-1.27-4.79L487.86,496.63z"/>
		<path class="st2" d="M505.97,579.19c1.37-0.93,2.4-2.37,2.75-4.12l4.57-22.75l-16.35-3.29l-4.57,22.75
			c-0.35,1.76,0.03,3.48,0.94,4.87l-14.59-2.93c1.37-0.93,2.4-2.37,2.75-4.12l12.7-63.15l10.38-6.9l20.86,4.19l6.9,10.38
			l-12.7,63.15c-0.35,1.76,0.03,3.48,0.94,4.87L505.97,579.19z M520.51,516.43l-1.8-2.71l-11.83-2.38l-2.71,1.8l-5.02,24.99
			l16.35,3.29L520.51,516.43z"/>
		<path class="st2" d="M568.09,595.11l-15.35-4.31c1.35-0.57,1.47-2.67,1.38-3.27l-3.46-26.17l-7.24-2.03l-6.27,22.34
			c-0.48,1.72-0.23,3.48,0.57,4.93l-14.33-4.02c1.44-0.82,2.57-2.18,3.05-3.91L545,512.57c0.48-1.72,0.23-3.48-0.58-4.93l30.86,8.66
			l6.11,10.87l-8.75,31.19l-10.38,5.83l3.36,25.46C565.95,592.16,567.02,594.04,568.09,595.11z M569.44,528.6l-1.59-2.84l-13.91-3.9
			l-7.51,26.76l13.91,3.9l2.84-1.59L569.44,528.6z"/>
		<path class="st2" d="M616,607.28c-0.61,1.68-0.48,3.45,0.21,4.95l-14-5.07c1.49-0.71,2.72-1.99,3.33-3.67l13.82-38.17l-19.28,20.6
			l-1.62-28.17l-13.82,38.17c-0.61,1.68-0.48,3.44,0.21,4.94l-14-5.07c1.5-0.71,2.72-1.99,3.33-3.67l23.37-64.54
			c0.61-1.68,0.48-3.45-0.21-4.95l10.45,3.78l1.9,32.97l22.57-24.11l10.44,3.78c-1.49,0.71-2.72,1.99-3.33,3.66L616,607.28z"/>
		<path class="st2" d="M651.01,569.88l16.54,31.5l-8.68,19.82l-11.6,4.54l-19.48-8.53l-4.54-11.6l3.54-8.09
			c0.72-1.64,0.71-3.41,0.11-4.95l13.63,5.97c-1.54,0.61-2.84,1.8-3.56,3.44l-1.7,3.88l1.19,3.03l11.05,4.84l3.03-1.19l4.69-10.71
			l-16.54-31.5l8.68-19.82l11.6-4.54l19.48,8.53l4.54,11.6l-3.54,8.09c-0.72,1.64-0.71,3.41-0.11,4.96l-13.63-5.97
			c1.54-0.61,2.84-1.8,3.56-3.44l1.7-3.88l-1.19-3.03l-11.05-4.84l-3.03,1.18L651.01,569.88z"/>
	</g>
	<g>
		<g>
			<path class="st5" d="M191.48,409.93c0.82-0.09,1.54-0.5,2.02-1.1l0.75,6.86c-0.61-0.48-1.39-0.73-2.21-0.64l-18.72,2.02
				l12.51,3.83l-11.4,6.42l18.72-2.02c0.82-0.09,1.53-0.5,2.02-1.1l0.74,6.86c-0.6-0.48-1.38-0.73-2.21-0.64l-31.65,3.42
				c-0.82,0.09-1.53,0.5-2.02,1.1l-0.56-5.12l13.35-7.51l-14.64-4.49l-0.56-5.12c0.6,0.48,1.38,0.73,2.21,0.64L191.48,409.93z"/>
			<path class="st5" d="M193.64,386.05l-4.41,3.73l-27.82-2.32l-3.73-4.41l0.82-9.83l4.41-3.73l27.81,2.33l3.74,4.41L193.64,386.05z
				 M189.14,377.92l-0.97-1.15l-23.56-1.97l-1.15,0.97l-0.47,5.58l0.98,1.15l23.56,1.97l1.15-0.97L189.14,377.92z"/>
			<path class="st5" d="M171.87,326.98l26.92,7.28l2.88,5.01l-3.86,14.3c-0.39-0.66-1.03-1.18-1.82-1.4l-30.71-8.3
				c-0.8-0.22-1.61-0.09-2.28,0.29l3.87-14.3L171.87,326.98z M172.59,332.51l-1.31,0.75l-1.74,6.43l24.86,6.72l1.74-6.43l-0.75-1.31
				L172.59,332.51z"/>
			<path class="st5" d="M214.25,302.08c0.75,0.36,1.57,0.38,2.29,0.13l-7.41,15.53c-0.26-0.72-0.79-1.35-1.54-1.7l-28.71-13.7
				c-0.75-0.36-1.57-0.38-2.3-0.13l7.41-15.52c0.26,0.72,0.79,1.35,1.54,1.7l2.73,1.3l-4.44,9.3l9.3,4.44l3.71-7.76
				c0.26,0.72,0.79,1.35,1.54,1.7l2.73,1.3l-3.33,6.98l9.3,4.44l4.44-9.3L214.25,302.08z"/>
			<path class="st5" d="M238.87,268.2l-4.38,5.94c-0.02-0.68-0.92-1.07-1.19-1.14l-11.91-2.8l-2.07,2.81l8.65,6.38
				c0.67,0.49,1.47,0.67,2.23,0.56l-4.1,5.55c-0.12-0.76-0.52-1.47-1.19-1.97l-25.6-18.88c-0.67-0.49-1.47-0.67-2.23-0.56
				l8.82-11.95l5.71-0.86l12.08,8.91l0.82,5.45l11.58,2.72C237.24,268.64,238.23,268.49,238.87,268.2z M210.27,256.7l-1.49,0.23
				l-3.97,5.39l10.36,7.64l3.97-5.39l-0.23-1.49L210.27,256.7z"/>
			<path class="st5" d="M264.08,239.59c0.56,0.61,1.31,0.94,2.08,0.98l-3.82,3.49l-20.25-9.42l12.48,13.65
				c0.56,0.61,1.31,0.94,2.08,0.98l-5.09,4.66c0.03-0.77-0.23-1.55-0.79-2.16l-21.48-23.49c-0.56-0.61-1.31-0.94-2.08-0.98
				l3.82-3.49l20.25,9.42l-12.48-13.65c-0.56-0.61-1.32-0.94-2.08-0.98l5.1-4.66c-0.03,0.77,0.23,1.55,0.79,2.16L264.08,239.59z"/>
			<path class="st5" d="M321.5,205.15c0.33,0.76,0.94,1.31,1.66,1.59l-6.31,2.79c0.27-0.72,0.27-1.54-0.06-2.3l-5.39-12.19
				l-7.07,3.13l5.39,12.2c0.33,0.76,0.95,1.31,1.66,1.59l-6.31,2.79c0.27-0.72,0.27-1.54-0.06-2.3l-12.87-29.1
				c-0.34-0.76-0.95-1.31-1.66-1.59l6.31-2.79c-0.27,0.72-0.27,1.54,0.06,2.3l5.39,12.19l7.07-3.13l-5.39-12.2
				c-0.34-0.76-0.94-1.31-1.66-1.59l6.31-2.79c-0.27,0.72-0.27,1.54,0.06,2.3L321.5,205.15z"/>
			<path class="st5" d="M356.78,194.76c0.19,0.81,0.69,1.46,1.34,1.87l-16.76,3.93c0.4-0.65,0.56-1.46,0.36-2.27l-7.28-30.99
				c-0.19-0.81-0.69-1.46-1.33-1.87l16.75-3.94c-0.4,0.66-0.55,1.47-0.36,2.27l0.69,2.95l-10.03,2.36l2.36,10.04l8.38-1.97
				c-0.4,0.66-0.56,1.47-0.36,2.27l0.69,2.95l-7.53,1.77l2.36,10.04l10.03-2.36L356.78,194.76z"/>
			<path class="st5" d="M398.52,192.79l-7.38,0.3c0.52-0.44,0.27-1.39,0.14-1.64l-5.27-11.04l-3.48,0.14l0.43,10.75
				c0.03,0.83,0.39,1.56,0.96,2.09l-6.9,0.28c0.52-0.57,0.82-1.33,0.79-2.16l-1.29-31.79c-0.03-0.83-0.4-1.57-0.96-2.09l14.84-0.6
				l4.25,3.92l0.61,15l-3.74,4.06l5.13,10.74C397.16,191.8,397.9,192.48,398.52,192.79z M389.6,163.28l-1.11-1.03l-6.69,0.27
				l0.52,12.87l6.69-0.27l1.02-1.11L389.6,163.28z"/>
			<path class="st5" d="M424.01,192.66c-0.11,0.82,0.12,1.61,0.59,2.22l-6.84-0.91c0.6-0.47,1.03-1.17,1.14-1.99l4.19-31.54
				c0.11-0.82-0.12-1.61-0.59-2.22l6.84,0.91c-0.61,0.47-1.04,1.17-1.15,1.99L424.01,192.66z"/>
			<path class="st5" d="M470.82,170.56l-0.84,2.91l-5.94-1.71l-7.97,27.67c-0.23,0.8-0.12,1.61,0.25,2.29l-6.63-1.91
				c0.67-0.38,1.19-1,1.43-1.8l7.97-27.68l-5.94-1.71l0.84-2.91c0.23-0.8,0.11-1.61-0.25-2.28l18.52,5.33
				C471.58,169.13,471.05,169.76,470.82,170.56z"/>
			<path class="st5" d="M490.89,215.71c0.73-0.25,1.36-0.76,1.74-1.51l4.84-9.6l-6.9-3.48l-4.84,9.61
				c-0.37,0.74-0.41,1.56-0.18,2.29l-6.16-3.11c0.73-0.24,1.36-0.77,1.74-1.51l13.44-26.66l5.49-1.81l8.81,4.44l1.81,5.49
				l-13.44,26.66c-0.38,0.74-0.42,1.56-0.18,2.29L490.89,215.71z M505.1,189.45l-0.47-1.43l-4.99-2.52l-1.44,0.47l-5.32,10.55
				l6.9,3.48L505.1,189.45z"/>
			<path class="st5" d="M540.53,223.82c-0.76,0.1-1.48,0.5-1.99,1.16l-8.77,11.43l-5.73,0.75l-7.83-6l-0.75-5.73l16.97-22.14
				l5.73-0.75l7.83,6l0.75,5.73l-2.49,3.25c-0.51,0.66-0.7,1.46-0.6,2.22l-5.48-4.2c0.76-0.1,1.48-0.5,1.99-1.16l1.19-1.56
				l-0.2-1.49l-4.44-3.41l-1.49,0.2l-14.38,18.75l0.2,1.5l4.44,3.4l1.5-0.2l5.62-7.33l-2.04-1.57l1.84-2.4
				c0.5-0.66,0.7-1.46,0.6-2.22L540.53,223.82z"/>
			<path class="st5" d="M554.45,263.56c-0.61,0.56-0.95,1.31-0.99,2.08l-11.55-12.76c0.77,0.03,1.55-0.22,2.16-0.78l23.6-21.36
				c0.61-0.56,0.95-1.31,0.99-2.08l11.55,12.76c-0.77-0.03-1.55,0.22-2.16,0.78l-2.24,2.03l-6.92-7.64l-7.64,6.92l5.78,6.38
				c-0.77-0.03-1.55,0.22-2.17,0.78l-2.25,2.03l-5.19-5.73l-7.65,6.92l6.92,7.64L554.45,263.56z"/>
			<path class="st5" d="M589.94,323.24c-0.76,0.33-1.31,0.94-1.6,1.65l-2.76-6.33c0.72,0.28,1.54,0.28,2.3-0.05l17.26-7.53
				l-13.09,0.09l8.96-9.54l-17.26,7.53c-0.76,0.33-1.31,0.94-1.59,1.65l-2.76-6.33c0.72,0.28,1.54,0.28,2.3-0.05l29.18-12.73
				c0.76-0.33,1.32-0.94,1.6-1.65l2.06,4.72l-10.49,11.16l15.32-0.1l2.06,4.72c-0.72-0.28-1.54-0.28-2.3,0.05L589.94,323.24z"/>
			<path class="st5" d="M597.62,348.67c-0.8,0.2-1.45,0.71-1.85,1.36l-1.66-6.7c0.66,0.39,1.47,0.54,2.27,0.34l30.87-7.68
				c0.8-0.2,1.45-0.7,1.85-1.36l1.67,6.7c-0.66-0.39-1.47-0.54-2.27-0.34L597.62,348.67z"/>
			<path class="st5" d="M599.53,369.04c0.59,0.49,1.37,0.76,2.19,0.68l31.71-2.83c0.83-0.08,1.54-0.47,2.04-1.06l0.61,6.88
				c-0.59-0.49-1.37-0.76-2.2-0.68l-28.69,2.56l0.92,10.27l-3.02,0.27c-0.82,0.07-1.54,0.48-2.04,1.06L599.53,369.04z"/>
			<path class="st5" d="M599.28,426.03l0.7-7.15c0.33,0.5,1.36,0.54,1.6,0.49l14.21-3.24l0.32-3.28l-13.27-1.3
				c-0.83-0.08-1.6,0.18-2.2,0.66l0.68-6.87c0.49,0.59,1.2,0.99,2.03,1.08l31.67,3.1c0.82,0.08,1.6-0.18,2.2-0.66l-0.67,6.87
				c-0.49-0.59-1.21-1-2.03-1.08l-13.27-1.3l-0.32,3.28l13.31,5.93c0.22,0.1,1.24,0.26,1.66-0.17l-0.7,7.15
				c-0.28-0.64-0.86-1.29-1.96-1.78l-15.32-6.83l-16.35,3.73C600.38,424.93,599.68,425.46,599.28,426.03z"/>
		</g>
	</g>
	<g>
		<g>
			<path class="st1" d="M261.5,691.34c0.24,0.62,0.71,1.08,1.27,1.33l-12.81,5.04c0.24-0.57,0.27-1.22,0.03-1.84l-9.32-23.69
				c-0.24-0.62-0.71-1.08-1.27-1.33l12.81-5.04c-0.24,0.57-0.27,1.22-0.03,1.84l0.89,2.25l-7.67,3.02l3.02,7.67l6.41-2.52
				c-0.24,0.57-0.27,1.22-0.03,1.84l0.89,2.25l-5.76,2.27l3.02,7.67l7.67-3.02L261.5,691.34z"/>
			<path class="st1" d="M276.41,667.59l12.17,5.1l2.2,7.72l-2.24,4.04l-7.59,2.17l-4.04-2.24l-0.9-3.15
				c-0.18-0.64-0.6-1.14-1.14-1.44l5.31-1.52c-0.29,0.54-0.39,1.19-0.21,1.82l0.43,1.51l1.06,0.59l4.3-1.23l0.59-1.06l-1.19-4.17
				L273,670.63l-2.2-7.72l2.24-4.04l7.59-2.17l4.04,2.25l0.9,3.15c0.18,0.64,0.6,1.14,1.14,1.44l-5.31,1.51
				c0.3-0.54,0.39-1.19,0.21-1.82l-0.43-1.51l-1.06-0.59l-4.3,1.23l-0.59,1.05L276.41,667.59z"/>
			<path class="st1" d="M316.56,650.36l0.46,2.38l-4.86,0.93l4.33,22.61c0.13,0.65,0.5,1.19,1.01,1.54l-5.42,1.04
				c0.34-0.51,0.49-1.15,0.37-1.8l-4.34-22.61l-4.85,0.93L302.8,653c-0.12-0.65-0.5-1.19-1.01-1.54l15.13-2.9
				C316.58,649.07,316.44,649.71,316.56,650.36z"/>
			<path class="st1" d="M347.76,673.43c0.38-0.48,0.58-1.11,0.51-1.77l-0.93-8.56l-6.15,0.67l0.93,8.56
				c0.07,0.66,0.4,1.23,0.88,1.62l-5.49,0.6c0.38-0.48,0.58-1.11,0.51-1.77l-2.58-23.75l2.9-3.6l7.85-0.85l3.6,2.9l2.58,23.75
				c0.07,0.66,0.4,1.23,0.88,1.62L347.76,673.43z M345.87,649.61l-0.94-0.76l-4.45,0.48l-0.76,0.94l1.02,9.4l6.15-0.67
				L345.87,649.61z"/>
			<path class="st1" d="M383.87,655.59l-1.17,1.25l1.24,1.17l0.3,9.95l-3.17,3.37l-11.85,0.36c0.42-0.45,0.67-1.06,0.65-1.72
				l-0.78-25.44c-0.02-0.66-0.31-1.25-0.75-1.68l11.85-0.36l3.37,3.17L383.87,655.59z M379.5,647.47l-0.88-0.83l-5.33,0.16
				l0.25,8.24l5.33-0.16l0.83-0.88L379.5,647.47z M379.88,659.83L379,659l-5.33,0.16l0.25,8.24l5.33-0.16l0.83-0.88L379.88,659.83z"
				/>
			<path class="st1" d="M400.13,671.25c0.45-0.42,0.74-1.01,0.76-1.67l1-25.44c0.03-0.66-0.22-1.27-0.63-1.73l5.52,0.22
				c-0.45,0.42-0.74,1.01-0.77,1.67l-0.91,23.02l8.24,0.32l-0.09,2.42c-0.03,0.66,0.22,1.27,0.63,1.73L400.13,671.25z"/>
			<path class="st1" d="M434.97,671.73c-0.06,0.66,0.14,1.29,0.53,1.76l-5.5-0.53c0.47-0.39,0.79-0.97,0.86-1.63l2.43-25.34
				c0.06-0.66-0.14-1.29-0.53-1.76l5.5,0.53c-0.47,0.39-0.79,0.97-0.86,1.63L434.97,671.73z"/>
			<path class="st1" d="M458.84,656.67l8.93,9.7l-1.22,7.93l-3.72,2.73l-7.8-1.19l-2.73-3.73l0.49-3.24
				c0.1-0.65-0.07-1.29-0.43-1.78l5.45,0.83c-0.49,0.37-0.85,0.92-0.95,1.57l-0.24,1.55l0.71,0.97l4.42,0.68l0.97-0.71l0.65-4.29
				l-8.93-9.7l1.22-7.93l3.73-2.73l7.8,1.19l2.73,3.72l-0.5,3.24c-0.1,0.65,0.07,1.29,0.43,1.78l-5.45-0.83
				c0.49-0.36,0.85-0.92,0.95-1.57l0.24-1.55l-0.72-0.97l-4.42-0.68l-0.97,0.72L458.84,656.67z"/>
			<path class="st1" d="M497.5,682.02c-0.14,0.65-0.01,1.29,0.32,1.81l-5.4-1.17c0.52-0.34,0.9-0.86,1.04-1.51l2.27-10.43
				l-6.05-1.31l-2.27,10.43c-0.14,0.65-0.01,1.29,0.32,1.81l-5.4-1.17c0.52-0.34,0.9-0.87,1.04-1.51l5.41-24.89
				c0.14-0.65,0.01-1.29-0.32-1.81l5.4,1.17c-0.52,0.34-0.9,0.87-1.05,1.52l-2.27,10.43l6.05,1.31l2.27-10.43
				c0.14-0.65,0.01-1.29-0.32-1.81l5.4,1.17c-0.52,0.34-0.9,0.86-1.04,1.51L497.5,682.02z"/>
			<path class="st1" d="M526.52,689.54c-0.18,0.64-0.08,1.29,0.22,1.83l-13.27-3.68c0.53-0.31,0.95-0.81,1.13-1.45l6.8-24.53
				c0.18-0.64,0.08-1.29-0.22-1.82l13.27,3.67c-0.53,0.31-0.95,0.81-1.13,1.45l-0.65,2.33l-7.95-2.2l-2.2,7.95l6.63,1.84
				c-0.53,0.31-0.95,0.81-1.13,1.45l-0.65,2.33l-5.96-1.65l-2.2,7.95l7.95,2.2L526.52,689.54z"/>
			<path class="st1" d="M564.74,676.61l-7.09,21.17l-4.14,2.06l-11.25-3.77c0.55-0.28,0.99-0.76,1.21-1.39l8.09-24.15
				c0.21-0.63,0.15-1.28-0.12-1.84l11.25,3.77L564.74,676.61z M560.29,676.92l-0.54-1.08l-5.06-1.69l-6.55,19.55l5.06,1.69
				l1.08-0.54L560.29,676.92z"/>
		</g>
	</g>
	<g>
		<g>
			<path class="st1" d="M352.45,740.11c0,0.66,0.27,1.26,0.7,1.7h-5.52c0.43-0.44,0.7-1.04,0.7-1.7v-20.11l-2.06,2.06l-2.91-2.91
				l6.18-6.18h3.61c-0.43,0.44-0.7,1.04-0.7,1.7V740.11z"/>
			<path class="st1" d="M384.4,716.24v22.31l-3.27,3.27h-7.89l-3.27-3.27v-3.27c0-0.66-0.27-1.26-0.7-1.7h5.52
				c-0.43,0.44-0.7,1.04-0.7,1.7v1.57l0.85,0.85h4.47l0.85-0.85v-7.39h-7.03l-3.27-3.27v-9.95l3.27-3.27h7.89L384.4,716.24z
				 M380.28,717.95l-0.85-0.85h-4.47l-0.85,0.85v6.53l0.85,0.85h4.47l0.85-0.85V717.95z"/>
			<path class="st1" d="M411.2,721.21c0.43-0.44,0.7-1.04,0.7-1.7v-2.42h-6.18v8.24h7.03l3.27,3.27v9.95l-3.27,3.27H400.9
				c0.43-0.44,0.7-1.04,0.7-1.7v-4.84c0-0.66-0.27-1.26-0.7-1.7h5.52c-0.43,0.44-0.7,1.04-0.7,1.7v2.42h5.33l0.85-0.85v-6.53
				l-0.85-0.85l-10.15,0c0.43-0.44,0.7-1.04,0.7-1.7v-13.08c0-0.66-0.27-1.26-0.7-1.7h15.82c-0.43,0.44-0.7,1.04-0.7,1.7v4.84
				c0,0.66,0.27,1.26,0.7,1.7H411.2z"/>
			<path class="st1" d="M436.51,741.81l-3.27-3.27v-9.95l1.21-1.21l-1.21-1.21v-9.95l3.27-3.27h7.89l3.27,3.27v9.95l-1.21,1.21
				l1.21,1.21v9.95l-3.27,3.27H436.51z M442.69,725.33l0.85-0.85v-6.53l-0.85-0.85h-4.47l-0.85,0.85v6.53l0.85,0.85H442.69z
				 M442.69,737.69l0.85-0.85v-6.53l-0.85-0.86h-4.47l-0.85,0.85v6.53l0.85,0.85H442.69z"/>
		</g>
	</g>
</g>
</svg>
